<svg width="23.985840" height="23.995361" viewBox="0 0 23.9858 23.9954" fill="none" xmlns="http://www.w3.org/2000/svg" xmlns:xlink="http://www.w3.org/1999/xlink">
	<desc>
			Created with Pixso.
	</desc>
	<defs/>
	<path id="Vector" d="M12 2.16089C15.2063 2.16089 15.5859 2.17505 16.8469 2.2312C18.0188 2.28271 18.6516 2.47974 19.0735 2.6438C19.6313 2.85938 20.0344 3.12183 20.4517 3.53906C20.8735 3.96094 21.1313 4.35938 21.3469 4.91724C21.511 5.33911 21.7078 5.97656 21.7593 7.1438C21.8157 8.40942 21.8296 8.78906 21.8296 11.9907C21.8296 15.1968 21.8157 15.5767 21.7593 16.8374C21.7078 18.0093 21.511 18.6421 21.3469 19.064C21.1313 19.6218 20.8687 20.0249 20.4517 20.4421C20.0298 20.864 19.6313 21.1218 19.0735 21.3374C18.6516 21.5015 18.0142 21.6985 16.8469 21.75C15.5813 21.8062 15.2017 21.8203 12 21.8203C8.7937 21.8203 8.41406 21.8062 7.15308 21.75C5.9812 21.6985 5.34839 21.5015 4.92651 21.3374C4.36865 21.1218 3.96558 20.8594 3.54834 20.4421C3.12646 20.0203 2.86865 19.6218 2.65308 19.064C2.48901 18.6421 2.29224 18.0046 2.24072 16.8374C2.18433 15.5718 2.17041 15.1921 2.17041 11.9907C2.17041 8.78442 2.18433 8.40479 2.24072 7.1438C2.29224 5.97192 2.48901 5.33911 2.65308 4.91724C2.86865 4.35938 3.13135 3.9563 3.54834 3.53906C3.97021 3.11719 4.36865 2.85938 4.92651 2.6438C5.34839 2.47974 5.98584 2.28271 7.15308 2.2312C8.41406 2.17505 8.7937 2.16089 12 2.16089ZM12 0C8.74219 0 8.33447 0.0141602 7.05469 0.0703125C5.77979 0.126465 4.90308 0.332764 4.1438 0.628174C3.35156 0.9375 2.68115 1.34521 2.01562 2.01562C1.34521 2.68115 0.9375 3.35156 0.628174 4.13916C0.332764 4.90308 0.126465 5.7749 0.0703125 7.05005C0.0141602 8.33447 0 8.74219 0 12C0 15.2578 0.0141602 15.6655 0.0703125 16.9453C0.126465 18.2202 0.332764 19.0969 0.628174 19.8562C0.9375 20.6484 1.34521 21.3188 2.01562 21.9844C2.68115 22.6499 3.35156 23.0625 4.13916 23.3672C4.90308 23.6626 5.7749 23.8687 7.05005 23.925C8.32959 23.9812 8.73755 23.9954 11.9954 23.9954C15.2532 23.9954 15.6609 23.9812 16.9407 23.925C18.2156 23.8687 19.0923 23.6626 19.8516 23.3672C20.6392 23.0625 21.3093 22.6499 21.9751 21.9844C22.6406 21.3188 23.0532 20.6484 23.3579 19.8608C23.6531 19.0969 23.8594 18.2251 23.9155 16.95C23.9719 15.6704 23.9858 15.2625 23.9858 12.0046C23.9858 8.74683 23.9719 8.33911 23.9155 7.05933C23.8594 5.78442 23.6531 4.90771 23.3579 4.14844C23.0625 3.35156 22.6548 2.68115 21.9844 2.01562C21.3188 1.3501 20.6484 0.9375 19.8608 0.632812C19.0969 0.337402 18.2251 0.131348 16.95 0.0749512C15.6655 0.0141602 15.2578 0 12 0Z" fill="#00171F" fill-opacity="1.000000" fill-rule="nonzero"/>
	<path id="Vector" d="M12 5.83594C8.59692 5.83594 5.83594 8.59692 5.83594 12C5.83594 15.4031 8.59692 18.1641 12 18.1641C15.4031 18.1641 18.1641 15.4031 18.1641 12C18.1641 8.59692 15.4031 5.83594 12 5.83594ZM12 15.9985C9.79224 15.9985 8.00146 14.2078 8.00146 12C8.00146 9.79224 9.79224 8.00146 12 8.00146C14.2078 8.00146 15.9985 9.79224 15.9985 12C15.9985 14.2078 14.2078 15.9985 12 15.9985Z" fill="#00171F" fill-opacity="1.000000" fill-rule="nonzero"/>
	<path id="Vector" d="M19.8469 5.59229C19.8469 6.38916 19.2 7.03149 18.4077 7.03149C17.6108 7.03149 16.9688 6.38452 16.9688 5.59229C16.9688 4.79541 17.6157 4.15332 18.4077 4.15332C19.2 4.15332 19.8469 4.80029 19.8469 5.59229Z" fill="#00171F" fill-opacity="1.000000" fill-rule="nonzero"/>
</svg>
