<svg width="23.000000" height="23.000000" viewBox="0 0 23 23" fill="none" xmlns="http://www.w3.org/2000/svg" xmlns:xlink="http://www.w3.org/1999/xlink">
	<desc>
			Created with Pixso.
	</desc>
	<defs/>
	<path id="Vector" d="M22.6771 21.061L18.4131 16.8284C20.0682 14.7629 20.8698 12.1416 20.6529 9.50317C20.436 6.8645 19.2172 4.40942 17.2471 2.64258C15.277 0.875732 12.7054 -0.0686035 10.0609 0.00390625C7.41644 0.0761719 4.90027 1.15991 3.02966 3.03198C1.15906 4.90405 0.0762329 7.42212 0.00384521 10.0686C-0.0684814 12.7151 0.875122 15.2886 2.64062 17.2603C4.40613 19.2319 6.85938 20.4517 9.49591 20.6685C12.1324 20.8855 14.7518 20.0835 16.8156 18.427L21.045 22.6597C21.1519 22.7676 21.279 22.8533 21.4191 22.9116C21.5591 22.97 21.7093 23 21.861 23C22.0128 23 22.163 22.97 22.303 22.9116C22.4431 22.8533 22.5702 22.7676 22.6771 22.6597C22.8842 22.4453 23 22.1587 23 21.8604C23 21.562 22.8842 21.2754 22.6771 21.061ZM10.3679 18.427C8.77667 18.427 7.22119 17.9548 5.89819 17.0701C4.57513 16.1855 3.54401 14.928 2.93506 13.4568C2.32611 11.9856 2.16681 10.3667 2.47723 8.80493C2.78766 7.24316 3.55389 5.80859 4.67902 4.68262C5.8042 3.55664 7.23773 2.78979 8.79834 2.479C10.3589 2.16846 11.9766 2.32788 13.4467 2.93726C14.9167 3.54663 16.1732 4.57861 17.0573 5.90259C17.9412 7.22681 18.4131 8.78345 18.4131 10.3757C18.4131 12.511 17.5655 14.5591 16.0567 16.0688C14.5479 17.5789 12.5016 18.427 10.3679 18.427Z" fill="#00171F" fill-opacity="1.000000" fill-rule="nonzero"/>
</svg>
