<svg width="24.000000" height="23.854248" viewBox="0 0 24 23.8542" fill="none" xmlns="http://www.w3.org/2000/svg" xmlns:xlink="http://www.w3.org/1999/xlink">
	<desc>
			Created with Pixso.
	</desc>
	<defs/>
	<path id="Vector" d="M24 12C24 5.37256 18.6274 0 12 0C5.37256 0 0 5.37256 0 12C0 17.9895 4.38818 22.9541 10.125 23.8542L10.125 15.4688L7.07812 15.4688L7.07812 12L10.125 12L10.125 9.3562C10.125 6.34863 11.9165 4.6875 14.6575 4.6875C15.97 4.6875 17.3438 4.92188 17.3438 4.92188L17.3438 7.875L15.8306 7.875C14.3401 7.875 13.875 8.80005 13.875 9.75L13.875 12L17.2031 12L16.6711 15.4688L13.875 15.4688L13.875 23.8542C19.6118 22.9541 24 17.9895 24 12Z" fill="#00171F" fill-opacity="1.000000" fill-rule="nonzero"/>
</svg>
