<svg width="24.000000" height="19.500732" viewBox="0 0 24 19.5007" fill="none" xmlns="http://www.w3.org/2000/svg" xmlns:xlink="http://www.w3.org/1999/xlink">
	<desc>
			Created with Pixso.
	</desc>
	<defs/>
	<path id="Vector" d="M7.55005 19.5007C16.6045 19.5007 21.5583 11.9973 21.5583 5.49268C21.5583 5.28174 21.5537 5.06592 21.5442 4.85498C22.5078 4.1582 23.3396 3.29492 24 2.30615C23.1025 2.70532 22.1497 2.96606 21.1738 3.07959C22.2012 2.46362 22.9705 1.49609 23.3391 0.356445C22.3726 0.929199 21.3157 1.33325 20.2134 1.55127C19.4709 0.762207 18.489 0.239746 17.4197 0.0646973C16.3503 -0.110352 15.2532 0.0717773 14.2979 0.582764C13.3423 1.09399 12.5818 1.90552 12.1338 2.89209C11.6858 3.87866 11.5754 4.98535 11.8196 6.04102C9.86255 5.94287 7.948 5.43433 6.19995 4.54883C4.45215 3.66333 2.90967 2.42017 1.67285 0.900146C1.04443 1.98389 0.852051 3.26636 1.13501 4.48682C1.41797 5.70728 2.15503 6.77417 3.19629 7.4707C2.41455 7.4458 1.6499 7.23535 0.965576 6.85669L0.965576 6.91748C0.964844 8.05493 1.35815 9.15723 2.07837 10.0376C2.79858 10.9177 3.80127 11.5212 4.91626 11.7456C4.19214 11.9438 3.43188 11.9727 2.69482 11.8301C3.00952 12.8081 3.62158 13.6636 4.4458 14.2771C5.27002 14.8906 6.26514 15.2314 7.29224 15.252C5.54834 16.6218 3.39429 17.3647 1.17651 17.3613C0.783203 17.3608 0.390381 17.3367 0 17.2891C2.25293 18.7344 4.87354 19.5022 7.55005 19.5007Z" fill="#00171F" fill-opacity="1.000000" fill-rule="nonzero"/>
</svg>
