<svg width="24.000000" height="16.879639" viewBox="0 0 24 16.8796" fill="none" xmlns="http://www.w3.org/2000/svg" xmlns:xlink="http://www.w3.org/1999/xlink">
	<desc>
			Created with Pixso.
	</desc>
	<defs/>
	<path id="Vector" d="M23.761 3.64209C23.761 3.64209 23.5266 1.98755 22.8047 1.26099C21.8906 0.304688 20.8687 0.300049 20.3999 0.243652C17.0437 0 12.0046 0 12.0046 0L11.9954 0C11.9954 0 6.9563 0 3.6001 0.243652C3.13135 0.300049 2.10938 0.304688 1.19531 1.26099C0.473389 1.98755 0.243652 3.64209 0.243652 3.64209C0.243652 3.64209 0 5.5874 0 7.52808L0 9.34692C0 11.2876 0.239014 13.2329 0.239014 13.2329C0.239014 13.2329 0.473389 14.8875 1.19067 15.614C2.10474 16.5703 3.30469 16.5376 3.83911 16.6406C5.76099 16.8235 12 16.8796 12 16.8796C12 16.8796 17.0437 16.8704 20.3999 16.6313C20.8687 16.575 21.8906 16.5703 22.8047 15.614C23.5266 14.8875 23.761 13.2329 23.761 13.2329C23.761 13.2329 24 11.2922 24 9.34692L24 7.52808C24 5.5874 23.761 3.64209 23.761 3.64209ZM9.52026 11.5547L9.52026 4.80933L16.0032 8.19385L9.52026 11.5547Z" fill="#00171F" fill-opacity="1.000000" fill-rule="nonzero"/>
</svg>
